<svg id="Layer_1" data-name="Layer 1" xmlns="http://www.w3.org/2000/svg" viewBox="0 0 373.19 288"><defs><style>.cls-1{isolation:isolate;}.cls-2{fill:#e23ba2;}.cls-3{fill:#38b5e6;}</style></defs><title>galvViceBluex</title><g class="cls-1"><g class="cls-1"><path class="cls-2" d="M120.1,157.48a12.09,12.09,0,0,1,1.5,6.3,15.36,15.36,0,0,1-1.4,7.2,13,13,0,0,1-4.4,4.6q-17.2,11.6-25.2,17.2l-12.8,8.6q-7.6,41.4-19.9,65.1t-31.3,23.7q-10.2,0-16.6-6.3t-6.4-16.5q0-14.2,11.2-30.5t42-40.1L58,189a23.09,23.09,0,0,1-8.9,8.3,23.27,23.27,0,0,1-10.9,2.9q-12.41,0-19.8-9T11,167.58a65,65,0,0,1,7.4-30.3,63.16,63.16,0,0,1,19.7-23q12.3-8.7,26.1-8.7,4.39,0,5.9,1.7c1,1.13,1.83,3.17,2.5,6.1a43.3,43.3,0,0,1,8.8-.8q5,0,7.1,1.5t2.1,5.9a28.78,28.78,0,0,1-.2,3.8q-.8,6.19-5,31.4-.8,4.8-1.7,10.5t-1.9,12.1q15.4-12,29.6-21.2A9,9,0,0,1,116,155,4.59,4.59,0,0,1,120.1,157.48Zm-80,101.3q6.3-12,12.1-38.2-15.4,13.2-22.2,23.8T23.2,263a10.87,10.87,0,0,0,1.3,5.6,4.62,4.62,0,0,0,4.3,2.2Q33.8,270.78,40.1,258.78Zm14.1-84.4q4.2-5.59,6-16l6.4-34.2q-8.2.19-15.2,6.3a43,43,0,0,0-11.2,16.1,54.19,54.19,0,0,0-4.2,21.2q0,6.19,2.5,9.2a8.5,8.5,0,0,0,6.9,3Q50,180,54.2,174.38Z" transform="translate(-0.6 -2.18)"/><path class="cls-2" d="M112.2,191.18q-7.41-9-7.4-23.6a64.92,64.92,0,0,1,7.4-30.3,63.16,63.16,0,0,1,19.7-23q12.3-8.7,26.1-8.7,4.4,0,5.9,1.7c1,1.13,1.83,3.17,2.5,6.1a47.21,47.21,0,0,1,8.8-.8q9.8,0,9.8,7,0,4.2-3,20-4.6,23-4.6,32a7.26,7.26,0,0,0,1.5,4.8,4.84,4.84,0,0,0,3.9,1.8q3.8,0,9.2-4.9a172.92,172.92,0,0,0,14.6-15.9,7,7,0,0,1,5.4-2.8,4.63,4.63,0,0,1,4.1,2.4,12.41,12.41,0,0,1,1.5,6.6q0,8-3.8,12.4a101.11,101.11,0,0,1-17.4,17.2q-9.21,7-17.8,7a18.67,18.67,0,0,1-12.1-4.5,27.34,27.34,0,0,1-8.3-12.3q-10.41,16.8-26.2,16.8Q119.6,200.18,112.2,191.18Zm35.4-16.4q4-5.21,5.8-13.8l7.4-36.8a24.19,24.19,0,0,0-15.5,6.3,42.37,42.37,0,0,0-11.3,16.1,54.19,54.19,0,0,0-4.2,21.2q0,6.19,2.5,9.2a8.48,8.48,0,0,0,6.9,3Q143.6,180,147.6,174.78Z" transform="translate(-0.6 -2.18)"/><path class="cls-2" d="M281.3,157a12.41,12.41,0,0,1,1.5,6.6q0,8-3.8,12.4a86.23,86.23,0,0,1-18.7,17.4,40.11,40.11,0,0,1-22.9,6.8q-17.61,0-26.1-16t-8.5-41.4q0-24.4,6.3-55.6t18.6-53.6Q240,11.18,257,11.18q9.6,0,15.1,8.9t5.5,25.5q0,23.81-13.2,55.2A306,306,0,0,1,228.6,163q1.4,8.21,4.6,11.7a10.85,10.85,0,0,0,8.4,3.5,23.22,23.22,0,0,0,14.4-4.7q6.19-4.69,15.8-16.1a7,7,0,0,1,5.4-2.8A4.63,4.63,0,0,1,281.3,157ZM242.2,47.58q-5.8,16.61-10.2,41.2a296.65,296.65,0,0,0-4.8,47.2,258.08,258.08,0,0,0,22.6-46.9q8.4-23.51,8.4-42.9,0-15.2-5.6-15.2Q248,31,242.2,47.58Z" transform="translate(-0.6 -2.18)"/><path class="cls-2" d="M367.59,138.18a5.55,5.55,0,0,1,4.6,2,8.37,8.37,0,0,1,1.6,5.4q0,6.19-2.4,9.7a13.62,13.62,0,0,1-7.2,5.1,62.79,62.79,0,0,1-19.6,3A56.13,56.13,0,0,1,328,161q-5.79,9.41-12.8,19.4-8,11.4-13.8,15.6a21.91,21.91,0,0,1-13.2,4.2,15.12,15.12,0,0,1-12.9-6.4q-4.69-6.41-5.9-20.2-2.4-28-2.4-49v-7c.14-4.4,1.33-7.47,3.6-9.2s5.67-2.6,10.2-2.6c3.47,0,6,.77,7.7,2.3s2.5,4.1,2.5,7.7q0,23,2.8,59.8,12-17.81,18-28.4a29.7,29.7,0,0,1-3-13.8,30.79,30.79,0,0,1,3-13.2,27.75,27.75,0,0,1,8.2-10.4,18.83,18.83,0,0,1,11.8-4,11.92,11.92,0,0,1,9.4,4.1q3.6,4.09,3.6,11.9,0,9-4.8,20.6a143.34,143.34,0,0,0,20.2-3l5.4-1A7.16,7.16,0,0,1,367.59,138.18Z" transform="translate(-0.6 -2.18)"/></g></g><g class="cls-1"><g class="cls-1"><path d="M120.1,152.48a12.09,12.09,0,0,1,1.5,6.3,15.36,15.36,0,0,1-1.4,7.2,13,13,0,0,1-4.4,4.6q-17.2,11.6-25.2,17.2l-12.8,8.6q-7.6,41.4-19.9,65.1t-31.3,23.7q-10.2,0-16.6-6.3t-6.4-16.5q0-14.2,11.2-30.5t42-40.1L58,184a23.09,23.09,0,0,1-8.9,8.3,23.27,23.27,0,0,1-10.9,2.9q-12.41,0-19.8-9T11,162.58a65,65,0,0,1,7.4-30.3,63.16,63.16,0,0,1,19.7-23q12.3-8.7,26.1-8.7,4.39,0,5.9,1.7c1,1.13,1.83,3.17,2.5,6.1a43.3,43.3,0,0,1,8.8-.8q5,0,7.1,1.5t2.1,5.9a28.78,28.78,0,0,1-.2,3.8q-.8,6.19-5,31.4-.8,4.8-1.7,10.5t-1.9,12.1q15.4-12,29.6-21.2A9,9,0,0,1,116,150,4.59,4.59,0,0,1,120.1,152.48Zm-80,101.3q6.3-12,12.1-38.2-15.4,13.2-22.2,23.8T23.2,258a10.87,10.87,0,0,0,1.3,5.6,4.62,4.62,0,0,0,4.3,2.2Q33.8,265.78,40.1,253.78Zm14.1-84.4q4.2-5.59,6-16l6.4-34.2q-8.2.19-15.2,6.3a43,43,0,0,0-11.2,16.1,54.19,54.19,0,0,0-4.2,21.2q0,6.19,2.5,9.2a8.5,8.5,0,0,0,6.9,3Q50,175,54.2,169.38Z" transform="translate(-0.6 -2.18)"/><path d="M112.2,186.18q-7.41-9-7.4-23.6a64.92,64.92,0,0,1,7.4-30.3,63.16,63.16,0,0,1,19.7-23q12.3-8.7,26.1-8.7,4.4,0,5.9,1.7c1,1.13,1.83,3.17,2.5,6.1a47.21,47.21,0,0,1,8.8-.8q9.8,0,9.8,7,0,4.2-3,20-4.6,23-4.6,32a7.26,7.26,0,0,0,1.5,4.8,4.84,4.84,0,0,0,3.9,1.8q3.8,0,9.2-4.9a172.92,172.92,0,0,0,14.6-15.9,7,7,0,0,1,5.4-2.8,4.63,4.63,0,0,1,4.1,2.4,12.41,12.41,0,0,1,1.5,6.6q0,8-3.8,12.4a101.11,101.11,0,0,1-17.4,17.2q-9.21,7-17.8,7a18.67,18.67,0,0,1-12.1-4.5,27.34,27.34,0,0,1-8.3-12.3q-10.41,16.8-26.2,16.8Q119.6,195.18,112.2,186.18Zm35.4-16.4q4-5.21,5.8-13.8l7.4-36.8a24.19,24.19,0,0,0-15.5,6.3,42.37,42.37,0,0,0-11.3,16.1,54.19,54.19,0,0,0-4.2,21.2q0,6.19,2.5,9.2a8.48,8.48,0,0,0,6.9,3Q143.6,175,147.6,169.78Z" transform="translate(-0.6 -2.18)"/><path d="M281.3,152a12.41,12.41,0,0,1,1.5,6.6q0,8-3.8,12.4a86.23,86.23,0,0,1-18.7,17.4,40.11,40.11,0,0,1-22.9,6.8q-17.61,0-26.1-16t-8.5-41.4q0-24.4,6.3-55.6t18.6-53.6Q240,6.19,257,6.18q9.6,0,15.1,8.9t5.5,25.5q0,23.81-13.2,55.2A306,306,0,0,1,228.6,158q1.4,8.21,4.6,11.7a10.85,10.85,0,0,0,8.4,3.5,23.22,23.22,0,0,0,14.4-4.7q6.19-4.69,15.8-16.1a7,7,0,0,1,5.4-2.8A4.63,4.63,0,0,1,281.3,152ZM242.2,42.58q-5.8,16.61-10.2,41.2a296.65,296.65,0,0,0-4.8,47.2,258.08,258.08,0,0,0,22.6-46.9q8.4-23.51,8.4-42.9,0-15.19-5.6-15.2Q248,26,242.2,42.58Z" transform="translate(-0.6 -2.18)"/><path d="M367.59,133.18a5.55,5.55,0,0,1,4.6,2,8.37,8.37,0,0,1,1.6,5.4q0,6.19-2.4,9.7a13.62,13.62,0,0,1-7.2,5.1,62.79,62.79,0,0,1-19.6,3A56.13,56.13,0,0,1,328,156q-5.79,9.41-12.8,19.4-8,11.4-13.8,15.6a21.91,21.91,0,0,1-13.2,4.2,15.12,15.12,0,0,1-12.9-6.4q-4.69-6.41-5.9-20.2-2.4-28-2.4-49v-7c.14-4.4,1.33-7.47,3.6-9.2s5.67-2.6,10.2-2.6c3.47,0,6,.77,7.7,2.3s2.5,4.1,2.5,7.7q0,23,2.8,59.8,12-17.81,18-28.4a29.7,29.7,0,0,1-3-13.8,30.79,30.79,0,0,1,3-13.2,27.75,27.75,0,0,1,8.2-10.4,18.83,18.83,0,0,1,11.8-4,11.92,11.92,0,0,1,9.4,4.1q3.6,4.09,3.6,11.9,0,9-4.8,20.6a143.34,143.34,0,0,0,20.2-3l5.4-1A7.16,7.16,0,0,1,367.59,133.18Z" transform="translate(-0.6 -2.18)"/></g></g><g class="cls-1"><g class="cls-1"><path class="cls-3" d="M117.1,148.48a12.09,12.09,0,0,1,1.5,6.3,15.36,15.36,0,0,1-1.4,7.2,13,13,0,0,1-4.4,4.6q-17.2,11.6-25.2,17.2l-12.8,8.6q-7.6,41.4-19.9,65.1t-31.3,23.7q-10.2,0-16.6-6.3T.6,258.38q0-14.2,11.2-30.5t42-40.1L55,180a23.09,23.09,0,0,1-8.9,8.3,23.27,23.27,0,0,1-10.9,2.9q-12.41,0-19.8-9T8,158.58a65,65,0,0,1,7.4-30.3,63.16,63.16,0,0,1,19.7-23q12.3-8.7,26.1-8.7,4.39,0,5.9,1.7c1,1.13,1.83,3.17,2.5,6.1a43.3,43.3,0,0,1,8.8-.8q5,0,7.1,1.5t2.1,5.9a28.78,28.78,0,0,1-.2,3.8q-.8,6.19-5,31.4-.8,4.8-1.7,10.5t-1.9,12.1q15.4-12,29.6-21.2A9,9,0,0,1,113,146,4.59,4.59,0,0,1,117.1,148.48Zm-80,101.3q6.3-12,12.1-38.2-15.4,13.2-22.2,23.8T20.2,254a10.87,10.87,0,0,0,1.3,5.6,4.62,4.62,0,0,0,4.3,2.2Q30.8,261.78,37.1,249.78Zm14.1-84.4q4.2-5.59,6-16l6.4-34.2q-8.2.19-15.2,6.3a43,43,0,0,0-11.2,16.1,54.19,54.19,0,0,0-4.2,21.2q0,6.19,2.5,9.2a8.5,8.5,0,0,0,6.9,3Q47,171,51.2,165.38Z" transform="translate(-0.6 -2.18)"/><path class="cls-3" d="M109.2,182.18q-7.41-9-7.4-23.6a64.92,64.92,0,0,1,7.4-30.3,63.16,63.16,0,0,1,19.7-23q12.3-8.7,26.1-8.7,4.4,0,5.9,1.7c1,1.13,1.83,3.17,2.5,6.1a47.21,47.21,0,0,1,8.8-.8q9.8,0,9.8,7,0,4.2-3,20-4.6,23-4.6,32a7.26,7.26,0,0,0,1.5,4.8,4.84,4.84,0,0,0,3.9,1.8q3.8,0,9.2-4.9a172.92,172.92,0,0,0,14.6-15.9,7,7,0,0,1,5.4-2.8,4.63,4.63,0,0,1,4.1,2.4,12.41,12.41,0,0,1,1.5,6.6q0,8-3.8,12.4a101.11,101.11,0,0,1-17.4,17.2q-9.21,7-17.8,7a18.67,18.67,0,0,1-12.1-4.5,27.34,27.34,0,0,1-8.3-12.3q-10.41,16.8-26.2,16.8Q116.6,191.18,109.2,182.18Zm35.4-16.4q4-5.21,5.8-13.8l7.4-36.8a24.19,24.19,0,0,0-15.5,6.3,42.37,42.37,0,0,0-11.3,16.1,54.19,54.19,0,0,0-4.2,21.2q0,6.19,2.5,9.2a8.48,8.48,0,0,0,6.9,3Q140.6,171,144.6,165.78Z" transform="translate(-0.6 -2.18)"/><path class="cls-3" d="M278.3,148a12.41,12.41,0,0,1,1.5,6.6q0,8-3.8,12.4a86.23,86.23,0,0,1-18.7,17.4,40.11,40.11,0,0,1-22.9,6.8q-17.61,0-26.1-16t-8.5-41.4q0-24.4,6.3-55.6t18.6-53.6Q237,2.19,254,2.18q9.6,0,15.1,8.9t5.5,25.5q0,23.81-13.2,55.2A306,306,0,0,1,225.6,154q1.4,8.21,4.6,11.7a10.85,10.85,0,0,0,8.4,3.5,23.22,23.22,0,0,0,14.4-4.7q6.19-4.69,15.8-16.1a7,7,0,0,1,5.4-2.8A4.63,4.63,0,0,1,278.3,148ZM239.2,38.58q-5.8,16.61-10.2,41.2a296.65,296.65,0,0,0-4.8,47.2,258.08,258.08,0,0,0,22.6-46.9q8.4-23.51,8.4-42.9,0-15.19-5.6-15.2Q245,22,239.2,38.58Z" transform="translate(-0.6 -2.18)"/><path class="cls-3" d="M364.59,129.18a5.55,5.55,0,0,1,4.6,2,8.37,8.37,0,0,1,1.6,5.4q0,6.19-2.4,9.7a13.62,13.62,0,0,1-7.2,5.1,62.79,62.79,0,0,1-19.6,3A56.13,56.13,0,0,1,325,152q-5.79,9.41-12.8,19.4-8,11.4-13.8,15.6a21.91,21.91,0,0,1-13.2,4.2,15.12,15.12,0,0,1-12.9-6.4q-4.69-6.41-5.9-20.2-2.4-28-2.4-49v-7c.14-4.4,1.33-7.47,3.6-9.2s5.67-2.6,10.2-2.6c3.47,0,6,.77,7.7,2.3s2.5,4.1,2.5,7.7q0,23,2.8,59.8,12-17.81,18-28.4a29.7,29.7,0,0,1-3-13.8,30.79,30.79,0,0,1,3-13.2,27.75,27.75,0,0,1,8.2-10.4,18.83,18.83,0,0,1,11.8-4,11.92,11.92,0,0,1,9.4,4.1q3.6,4.09,3.6,11.9,0,9-4.8,20.6a143.34,143.34,0,0,0,20.2-3l5.4-1A7.16,7.16,0,0,1,364.59,129.18Z" transform="translate(-0.6 -2.18)"/></g></g></svg>