<?xml version="1.0" encoding="iso-8859-1"?>
<!-- Generator: Adobe Illustrator 19.0.0, SVG Export Plug-In . SVG Version: 6.00 Build 0)  -->
<svg version="1.1" id="Capa_1" xmlns="http://www.w3.org/2000/svg" xmlns:xlink="http://www.w3.org/1999/xlink" x="0px" y="0px"
	 viewBox="0 0 512 512" style="enable-background:new 0 0 512 512;" xml:space="preserve">
<path style="fill:#E978A0;" d="M481.978,384.731l-62.845-22.196c-14.043-4.96-29.23-5.708-43.693-2.154l0,0
	c-25.357,6.232-51.373,9.382-77.485,9.382H120.281c-6.444,0-11.667-5.224-11.667-11.667V256.425c0-6.444,5.224-11.667,11.667-11.667
	h177.674c26.112,0,52.128,3.15,77.485,9.382l0,0c14.463,3.555,29.649,2.806,43.693-2.154l62.845-22.196
	c10.993-3.883,22.522,4.272,22.522,15.931V368.8C504.5,380.459,492.971,388.614,481.978,384.731z"/>
<circle style="fill:#C06376;" cx="298.59" cy="300.23" r="40.965"/>
<path style="fill:#F0BDD5;" d="M386.146,255.973c-3.593-0.356-7.171-0.964-10.705-1.832c-10.526-2.587-21.169-4.611-31.882-6.131
	c-15.251,5.963-26.059,20.792-26.059,38.156c0,22.624,18.34,40.965,40.965,40.965c22.624,0,40.965-18.341,40.965-40.965
	C399.429,274.214,394.309,263.461,386.146,255.973z"/>
<path style="fill:#E978A0;" d="M364.249,251.62c-21.796-4.547-44.008-6.862-66.293-6.862h-12.262
	c-1.709,4.51-2.652,9.397-2.652,14.506c0,22.624,18.341,40.965,40.965,40.965s40.965-18.341,40.965-40.965
	C364.972,256.65,364.716,254.098,364.249,251.62z"/>
<g>
	<path style="fill:#F0BDD5;" d="M300.413,244.795c-0.82-0.006-1.638-0.037-2.458-0.037h-74.184
		c-1.709,4.51-2.652,9.397-2.652,14.506c0,22.624,18.341,40.965,40.965,40.965s40.965-18.341,40.965-40.965
		C303.05,254.169,302.113,249.295,300.413,244.795z"/>
	<path style="fill:#F0BDD5;" d="M214.142,350.093l-15.982-8.612l5.946-28.052l18.101-1.388c9.675-0.742,17.349,8.021,15.337,17.513
		l-2.279,10.754C233.252,349.8,222.684,354.696,214.142,350.093z"/>
</g>
<path style="fill:#C06376;" d="M120.281,244.758c-6.444,0-11.667,5.224-11.667,11.667v101.671c0,6.444,5.224,11.667,11.667,11.667
	h50.18c27.204-17.037,46.046-46.192,48.96-79.908c23.674-4.841,42.736-22.33,49.834-45.098H120.281V244.758z"/>
<path style="opacity:0.1;enable-background:new    ;" d="M481.978,366.844l-62.845-22.196c-14.043-4.96-29.23-5.708-43.693-2.154
	c-25.357,6.232-51.373,9.382-77.485,9.382h-63.291c-81.94-3.274-62.63-98.303-32.538-107.118h-81.845
	c-6.444,0-11.667,5.224-11.667,11.667v101.671c0,6.444,5.224,11.667,11.667,11.667h177.674c26.112,0,52.128-3.15,77.485-9.382
	c14.463-3.555,29.649-2.806,43.693,2.154l62.845,22.196c10.993,3.883,22.522-4.272,22.522-15.931v-17.887
	C504.5,362.572,492.971,370.726,481.978,366.844z"/>
<path style="opacity:0.1;enable-background:new    ;" d="M120.281,369.764c6.444,0,11.667-5.224,11.667-11.667V256.425
	c0-6.444-5.224-11.667-11.667-11.667c-6.444,0-11.667,5.224-11.667,11.667v101.671C108.614,364.54,113.837,369.764,120.281,369.764z
	"/>
<path style="fill:#F88A3F;" d="M481.978,200.561l-62.845-22.196c-14.043-4.96-29.23-5.708-43.693-2.154l0,0
	c-25.357,6.232-51.373,9.382-77.485,9.382H120.281c-6.444,0-11.667-5.224-11.667-11.667V72.255c0-6.444,5.224-11.667,11.667-11.667
	h177.674c26.112,0,52.128,3.15,77.485,9.382l0,0c14.463,3.555,29.649,2.806,43.693-2.154l62.845-22.196
	c10.993-3.882,22.522,4.272,22.522,15.931V184.63C504.5,196.289,492.971,204.443,481.978,200.561z"/>
<circle style="fill:#FF6700;" cx="298.59" cy="116.06" r="40.965"/>
<path style="fill:#FFBE93;" d="M386.146,71.802c-3.593-0.356-7.171-0.964-10.705-1.832c-10.526-2.587-21.169-4.611-31.882-6.131
	c-15.251,5.963-26.059,20.792-26.059,38.156c0,22.624,18.34,40.965,40.965,40.965c22.624,0,40.965-18.341,40.965-40.965
	C399.429,90.043,394.309,79.291,386.146,71.802z"/>
<path style="fill:#F88A3F;" d="M364.249,67.45c-21.796-4.547-44.008-6.862-66.293-6.862h-12.262
	c-1.709,4.51-2.652,9.397-2.652,14.506c0,22.624,18.341,40.965,40.965,40.965s40.965-18.341,40.965-40.965
	C364.972,72.48,364.716,69.927,364.249,67.45z"/>
<g>
	<path style="fill:#FFBE93;" d="M300.413,60.625c-0.82-0.006-1.638-0.037-2.458-0.037h-74.184c-1.709,4.51-2.652,9.397-2.652,14.506
		c0,22.624,18.341,40.965,40.965,40.965s40.965-18.341,40.965-40.965C303.05,69.998,302.113,65.124,300.413,60.625z"/>
	<path style="fill:#FFBE93;" d="M214.142,165.922l-15.982-8.612l5.946-28.052l18.101-1.388c9.675-0.742,17.349,8.02,15.337,17.513
		l-2.279,10.754C233.252,165.63,222.684,170.525,214.142,165.922z"/>
</g>
<path style="fill:#FF6700;" d="M120.281,60.588c-6.444,0-11.667,5.224-11.667,11.667v101.671c0,6.444,5.224,11.667,11.667,11.667
	h50.18c27.204-17.037,46.046-46.192,48.96-79.908c23.674-4.841,42.736-22.33,49.834-45.098H120.281V60.588z"/>
<path style="opacity:0.1;enable-background:new    ;" d="M481.978,182.673l-62.845-22.196c-14.043-4.96-29.23-5.708-43.693-2.154
	c-25.357,6.232-51.373,9.382-77.485,9.382h-63.291c-81.94-3.274-62.63-98.303-32.538-107.118h-81.845
	c-6.444,0-11.667,5.224-11.667,11.667v101.671c0,6.444,5.224,11.667,11.667,11.667h177.674c26.112,0,52.128-3.15,77.485-9.382
	c14.463-3.555,29.649-2.806,43.693,2.154l62.845,22.196c10.993,3.883,22.522-4.272,22.522-15.931v-17.887
	C504.5,178.401,492.971,186.556,481.978,182.673z"/>
<path style="opacity:0.1;enable-background:new    ;" d="M120.281,185.593c6.444,0,11.667-5.224,11.667-11.667V72.255
	c0-6.444-5.224-11.667-11.667-11.667c-6.444,0-11.667,5.224-11.667,11.667v101.671C108.614,180.37,113.837,185.593,120.281,185.593z
	"/>
<path style="fill:#F3CE72;" d="M38.811,504.5H19.213c-6.469,0-11.713-5.244-11.713-11.713V29.012C7.5,17.131,17.131,7.5,29.012,7.5
	l0,0c11.881,0,21.512,9.631,21.512,21.512v463.775C50.524,499.256,45.28,504.5,38.811,504.5z"/>
<path style="opacity:0.1;enable-background:new    ;" d="M21.7,492.788V29.012c0-9.389,6.025-17.351,14.412-20.287
	c-2.226-0.779-4.608-1.224-7.1-1.224l0,0C17.131,7.5,7.5,17.131,7.5,29.012v463.776c0,6.469,5.244,11.712,11.713,11.712h14.2
	C26.944,504.5,21.7,499.256,21.7,492.788z"/>
<path d="M151.921,101.994v14.064c0,4.143,3.358,7.5,7.5,7.5s7.5-3.357,7.5-7.5v-14.064c0-4.143-3.358-7.5-7.5-7.5
	S151.921,97.852,151.921,101.994z M427.028,145.993l48.297,18.852c0.897,0.35,1.818,0.516,2.726,0.516c3,0,5.832-1.813,6.988-4.774
	c1.507-3.859-0.4-8.208-4.259-9.714l-48.297-18.852c-3.862-1.507-8.208,0.4-9.714,4.259
	C421.263,140.139,423.17,144.487,427.028,145.993z M429.758,114.676c0.906,0,1.829-0.166,2.725-0.516l48.297-18.851
	c3.859-1.506,5.767-5.854,4.26-9.713c-1.506-3.857-5.853-5.768-9.713-4.26l-48.297,18.851c-3.859,1.506-5.767,5.854-4.26,9.713
	C423.926,112.863,426.758,114.676,429.758,114.676z M427.028,330.163l48.297,18.852c0.897,0.35,1.818,0.516,2.726,0.516
	c3,0,5.832-1.813,6.988-4.774c1.507-3.859-0.4-8.208-4.259-9.714l-48.297-18.852c-3.862-1.507-8.208,0.401-9.714,4.259
	C421.263,324.309,423.17,328.657,427.028,330.163z M429.758,298.847c0.906,0,1.829-0.166,2.726-0.516l48.297-18.852
	c3.858-1.506,5.766-5.854,4.259-9.714c-1.506-3.858-5.85-5.766-9.714-4.259l-48.297,18.852c-3.858,1.506-5.766,5.854-4.259,9.714
	C423.926,297.035,426.758,298.847,429.758,298.847z M119.513,193.055c0.253,0.026,0.509,0.039,0.768,0.039h50.171
	c0.005,0,0.01,0.001,0.016,0.001c0.005,0,0.009-0.001,0.014-0.001h127.473c26.688,0,53.36-3.229,79.275-9.6
	c13.077-3.214,26.704-2.542,39.404,1.943l62.846,22.195c2.639,0.932,5.382,1.389,8.113,1.389c4.986,0,9.929-1.525,14.099-4.475
	c6.455-4.565,10.308-12.01,10.308-19.916V61.551c0-7.905-3.853-15.352-10.308-19.916c-6.454-4.565-14.757-5.716-22.212-3.087
	l-62.846,22.196c-9.512,3.361-19.543,4.58-29.476,3.629c-0.034-0.005-0.068-0.006-0.102-0.01c-3.294-0.32-6.577-0.878-9.826-1.677
	c-25.913-6.369-52.585-9.599-79.275-9.599h-28.66c-0.025,0-0.051,0-0.076,0h-87.785c-4.142,0-7.5,3.357-7.5,7.5s3.358,7.5,7.5,7.5
	h76.631c-6.369,12.179-16.824,21.736-29.497,26.983c-0.142,0.055-0.285,0.109-0.424,0.173c-3.275,1.326-6.691,2.371-10.224,3.094
	c-3.254,0.665-5.684,3.393-5.97,6.702c-2.556,29.571-18.843,56.72-43.701,73.054H138.98c0.299-1.344,0.47-2.735,0.47-4.168V72.255
	c0-1.432-0.17-2.824-0.47-4.167h9.329c4.142,0,7.5-3.357,7.5-7.5s-3.358-7.5-7.5-7.5h-28.027c-0.259,0-0.516,0.013-0.768,0.039
	c-10.211,0.408-18.399,8.819-18.399,19.128v12.19h-43.09V29.012C58.024,13.015,45.009,0,29.012,0S0,13.015,0,29.012v390.824
	c0,4.143,3.358,7.5,7.5,7.5s7.5-3.357,7.5-7.5V29.012C15,21.286,21.286,15,29.012,15s14.012,6.286,14.012,14.012v463.775
	c0,2.323-1.89,4.213-4.213,4.213H19.212C16.89,497,15,495.11,15,492.787v-40.28c0-4.143-3.358-7.5-7.5-7.5s-7.5,3.357-7.5,7.5v40.28
	C0,503.381,8.619,512,19.212,512h19.599c10.594,0,19.213-8.619,19.213-19.213V345.906h43.09v12.19
	c0,10.309,8.188,18.72,18.399,19.128c0.253,0.026,0.509,0.039,0.768,0.039h50.171c0.005,0,0.01,0.001,0.016,0.001
	c0.005,0,0.009-0.001,0.014-0.001h127.473c26.686,0,53.358-3.229,79.275-9.599c13.08-3.215,26.706-2.544,39.404,1.942l26.185,9.248
	c3.905,1.375,8.19-0.669,9.57-4.574c1.379-3.906-0.669-8.191-4.574-9.57l-26.185-9.248c-15.463-5.461-32.054-6.279-47.98-2.364
	c-24.746,6.081-50.214,9.165-75.695,9.165H192.253c3.399-3.241,6.588-6.681,9.546-10.302l8.784,4.734
	c3.286,1.77,6.86,2.66,10.444,2.66c3.147,0,6.303-0.687,9.277-2.065c6.361-2.946,10.844-8.57,12.297-15.429l2.279-10.754
	c1.454-6.858-0.361-13.816-4.98-19.091c-3.925-4.482-9.322-7.103-15.147-7.468c0.623-2.857,1.141-5.743,1.538-8.656
	c1.018-0.289,2.024-0.608,3.025-0.939c6.027,5.533,13.332,9.415,21.203,11.354c3.002,23.862,23.407,42.385,48.07,42.385
	c15.272,0,29.43-7.146,38.515-19.051c6.518,3.211,13.797,4.988,21.36,4.988c26.724,0,48.465-21.741,48.465-48.465
	c0-7.961-1.994-15.735-5.656-22.658c6.898-0.628,13.732-2.109,20.357-4.448l62.845-22.196c2.914-1.029,6.031-0.596,8.556,1.188
	c2.522,1.785,3.969,4.58,3.969,7.67V368.8c0,3.09-1.447,5.886-3.97,7.67c-2.522,1.785-5.64,2.219-8.554,1.189l-8.814-3.112
	c-3.901-1.376-8.189,0.668-9.569,4.575c-1.379,3.905,0.669,8.189,4.574,9.569l8.813,3.112c2.638,0.932,5.382,1.389,8.113,1.389
	c4.986,0,9.929-1.525,14.099-4.476C508.146,384.152,512,376.705,512,368.8V245.72c0-7.905-3.853-15.351-10.307-19.915
	c-6.455-4.567-14.758-5.719-22.213-3.088l-62.846,22.196c-9.524,3.365-19.568,4.584-29.512,3.627
	c-0.004-0.001-0.008-0.001-0.012-0.001c-3.313-0.319-6.614-0.88-9.881-1.683c-25.915-6.37-52.588-9.6-79.275-9.6h-28.653
	c-0.03,0-0.061,0-0.091,0H120.28c-0.259,0-0.516,0.013-0.768,0.039c-10.211,0.408-18.399,8.819-18.399,19.128v12.19h-43.09v-106.88
	h43.09v12.19C101.114,184.236,109.302,192.647,119.513,193.055z M372.424,76.961c0.409,0.099,0.818,0.191,1.226,0.291
	c3.004,0.738,6.032,1.307,9.072,1.71c5.872,6.194,9.207,14.46,9.207,23.032c0,18.452-15.013,33.465-33.465,33.465
	c-10.348,0-19.915-4.819-26.157-12.626C354.491,118.986,371.545,100.016,372.424,76.961z M310.075,68.329
	c15.896,0.609,31.741,2.415,47.364,5.397c0.019,0.457,0.033,0.914,0.033,1.368c0,18.452-15.013,33.465-33.465,33.465
	c-7.721,0-15.13-2.678-21.048-7.474c4.797-7.517,7.591-16.431,7.591-25.991C310.55,72.818,310.388,70.56,310.075,68.329z
	 M314.614,122.623c2.539,5.389,6.013,10.185,10.191,14.211c-6.286,7.936-15.876,12.69-26.215,12.69
	c-15.933,0-29.293-11.196-32.646-26.132c10.253-0.812,19.62-4.818,27.093-11.035C299.267,117.538,306.69,121.055,314.614,122.623z
	 M274.542,68.088h20.263c0.49,2.292,0.745,4.633,0.745,7.006c0,18.452-15.013,33.465-33.465,33.465
	c-6.208,0-12.221-1.739-17.419-4.914C258.048,95.42,268.616,83.014,274.542,68.088z M220.308,135.537l2.474-0.189
	c2.229-0.175,4.359,0.695,5.834,2.381c1.476,1.686,2.056,3.908,1.591,6.1l-2.279,10.754c-0.464,2.191-1.896,3.987-3.928,4.928
	s-4.328,0.871-6.3-0.19l-7.135-3.845C214.449,149.169,217.721,142.492,220.308,135.537z M201.8,167.791l8.783,4.733
	c3.287,1.771,6.86,2.66,10.444,2.66c3.147,0,6.303-0.687,9.277-2.064c6.361-2.947,10.843-8.571,12.297-15.43l2.279-10.754
	c1.454-6.858-0.361-13.816-4.98-19.091c-3.924-4.482-9.324-7.112-15.145-7.472c0.623-2.856,1.141-5.74,1.537-8.651
	c1.019-0.289,2.025-0.608,3.025-0.939c6.027,5.534,13.331,9.415,21.202,11.354c3.002,23.862,23.407,42.385,48.07,42.385
	c15.272,0,29.431-7.146,38.516-19.052c6.518,3.21,13.796,4.987,21.359,4.987c26.724,0,48.465-21.741,48.465-48.465
	c0-7.96-1.994-15.734-5.656-22.657c6.898-0.628,13.731-2.109,20.357-4.448l62.846-22.196c2.912-1.03,6.031-0.598,8.554,1.188
	c2.522,1.784,3.97,4.58,3.97,7.67V184.63c0,3.091-1.447,5.886-3.97,7.671c-2.522,1.785-5.642,2.217-8.554,1.188l-62.846-22.195
	c-15.464-5.461-32.057-6.28-47.98-2.365c-24.745,6.082-50.213,9.166-75.695,9.166H192.253
	C195.652,174.853,198.841,171.412,201.8,167.791z M116.114,72.255c0-2.298,1.87-4.167,4.168-4.167s4.167,1.869,4.167,4.167v101.671
	c0,2.298-1.87,4.168-4.167,4.168c-2.298,0-4.168-1.87-4.168-4.168V72.255z M228.616,321.899c1.475,1.685,2.055,3.907,1.591,6.099
	l-2.279,10.754c-0.464,2.191-1.896,3.987-3.929,4.929c-2.032,0.942-4.328,0.872-6.299-0.19l-7.135-3.845
	c3.884-6.305,7.156-12.983,9.743-19.937l2.474-0.19C225.01,319.343,227.141,320.216,228.616,321.899z M372.424,261.132
	c0.408,0.099,0.818,0.191,1.226,0.292c3.004,0.738,6.032,1.307,9.072,1.709c5.873,6.194,9.208,14.46,9.208,23.032
	c0,18.452-15.013,33.465-33.465,33.465c-10.348,0-19.916-4.82-26.158-12.627C354.491,303.156,371.545,284.187,372.424,261.132z
	 M310.075,252.499c15.895,0.609,31.74,2.415,47.364,5.397c0.019,0.457,0.033,0.913,0.033,1.367
	c0,18.452-15.013,33.465-33.465,33.465c-7.721,0-15.13-2.678-21.048-7.474c4.797-7.517,7.591-16.431,7.591-25.991
	C310.55,256.988,310.388,254.73,310.075,252.499z M314.613,306.792c2.539,5.39,6.014,10.186,10.191,14.212
	c-6.286,7.935-15.876,12.689-26.215,12.689c-15.933,0-29.293-11.197-32.646-26.132c10.253-0.812,19.62-4.818,27.093-11.035
	C299.267,301.707,306.689,305.224,314.613,306.792z M274.542,252.258h20.263c0.49,2.292,0.745,4.634,0.745,7.006
	c0,18.452-15.013,33.465-33.465,33.465c-6.208,0-12.221-1.739-17.419-4.914C258.049,279.59,268.616,267.184,274.542,252.258z
	 M258.064,252.258c-6.371,12.183-16.831,21.743-29.51,26.988c-0.137,0.053-0.273,0.105-0.408,0.166
	c-3.276,1.326-6.693,2.373-10.228,3.095c-3.254,0.665-5.684,3.393-5.97,6.702c-2.556,29.57-18.843,56.72-43.701,73.054h-29.268
	c0.299-1.344,0.47-2.735,0.47-4.167v-101.67c0-1.433-0.171-2.824-0.47-4.168H258.064z M116.114,256.425
	c0-2.298,1.87-4.167,4.168-4.167s4.167,1.87,4.167,4.168v101.671c0,2.298-1.87,4.167-4.167,4.167c-2.298,0-4.168-1.869-4.168-4.167
	V256.425z M101.114,283.615v47.291h-43.09v-47.291H101.114z M58.024,146.735v-47.29h43.09v47.29H58.024z M159.421,307.728
	c4.142,0,7.5-3.357,7.5-7.5v-14.063c0-4.143-3.358-7.5-7.5-7.5s-7.5,3.357-7.5,7.5v14.063
	C151.921,304.371,155.279,307.728,159.421,307.728z"/>
<g>
</g>
<g>
</g>
<g>
</g>
<g>
</g>
<g>
</g>
<g>
</g>
<g>
</g>
<g>
</g>
<g>
</g>
<g>
</g>
<g>
</g>
<g>
</g>
<g>
</g>
<g>
</g>
<g>
</g>
</svg>
